<svg xmlns="http://www.w3.org/2000/svg" xmlns:xlink="http://www.w3.org/1999/xlink" version="1.1" class="marks" width="1026" height="194" viewBox="0 0 1026 194"><rect width="1026" height="194" fill="white"/><g fill="none" stroke-miterlimit="10" transform="translate(54,6)"><g class="mark-group role-frame root" role="graphics-object" aria-roledescription="group mark container"><g transform="translate(0,0)"><path class="background" aria-hidden="true" d="M0,0h0v0h0Z"/><g><g class="mark-group role-scope concat_0_group" role="graphics-object" aria-roledescription="group mark container"><g transform="translate(0,0)"><path class="background" aria-hidden="true" d="M0.5,0.5h450v150h-450Z" stroke="#ddd"/><g><g class="mark-group role-axis" role="graphics-symbol" aria-roledescription="axis" aria-label="X-axis for a linear scale with values from 0 to 900"><g transform="translate(0.5,150.5)"><path class="background" aria-hidden="true" d="M0,0h0v0h0Z" pointer-events="none"/><g><g class="mark-rule role-axis-grid" pointer-events="none"><line transform="translate(0,-150)" x2="0" y2="150" stroke="#ddd" stroke-width="1" opacity="1"/><line transform="translate(50,-150)" x2="0" y2="150" stroke="#ddd" stroke-width="1" opacity="1"/><line transform="translate(100,-150)" x2="0" y2="150" stroke="#ddd" stroke-width="1" opacity="1"/><line transform="translate(150,-150)" x2="0" y2="150" stroke="#ddd" stroke-width="1" opacity="1"/><line transform="translate(200,-150)" x2="0" y2="150" stroke="#ddd" stroke-width="1" opacity="1"/><line transform="translate(250,-150)" x2="0" y2="150" stroke="#ddd" stroke-width="1" opacity="1"/><line transform="translate(300,-150)" x2="0" y2="150" stroke="#ddd" stroke-width="1" opacity="1"/><line transform="translate(350,-150)" x2="0" y2="150" stroke="#ddd" stroke-width="1" opacity="1"/><line transform="translate(400,-150)" x2="0" y2="150" stroke="#ddd" stroke-width="1" opacity="1"/><line transform="translate(450,-150)" x2="0" y2="150" stroke="#ddd" stroke-width="1" opacity="1"/></g></g><path class="foreground" aria-hidden="true" d="" pointer-events="none" display="none"/></g></g><g class="mark-group role-axis" role="graphics-symbol" aria-roledescription="axis" aria-label="Y-axis for a linear scale with values from 0.000 to 0.004"><g transform="translate(0.5,0.5)"><path class="background" aria-hidden="true" d="M0,0h0v0h0Z" pointer-events="none"/><g><g class="mark-rule role-axis-grid" pointer-events="none"><line transform="translate(0,150)" x2="450" y2="0" stroke="#ddd" stroke-width="1" opacity="1"/><line transform="translate(0,117)" x2="450" y2="0" stroke="#ddd" stroke-width="1" opacity="1"/><line transform="translate(0,83)" x2="450" y2="0" stroke="#ddd" stroke-width="1" opacity="1"/><line transform="translate(0,50)" x2="450" y2="0" stroke="#ddd" stroke-width="1" opacity="1"/><line transform="translate(0,17)" x2="450" y2="0" stroke="#ddd" stroke-width="1" opacity="1"/></g></g><path class="foreground" aria-hidden="true" d="" pointer-events="none" display="none"/></g></g><g class="mark-group role-axis" role="graphics-symbol" aria-roledescription="axis" aria-label="X-axis titled 'mw' for a linear scale with values from 0 to 900"><g transform="translate(0.5,150.5)"><path class="background" aria-hidden="true" d="M0,0h0v0h0Z" pointer-events="none"/><g><g class="mark-rule role-axis-tick" pointer-events="none"><line transform="translate(0,0)" x2="0" y2="5" stroke="#888" stroke-width="1" opacity="1"/><line transform="translate(50,0)" x2="0" y2="5" stroke="#888" stroke-width="1" opacity="1"/><line transform="translate(100,0)" x2="0" y2="5" stroke="#888" stroke-width="1" opacity="1"/><line transform="translate(150,0)" x2="0" y2="5" stroke="#888" stroke-width="1" opacity="1"/><line transform="translate(200,0)" x2="0" y2="5" stroke="#888" stroke-width="1" opacity="1"/><line transform="translate(250,0)" x2="0" y2="5" stroke="#888" stroke-width="1" opacity="1"/><line transform="translate(300,0)" x2="0" y2="5" stroke="#888" stroke-width="1" opacity="1"/><line transform="translate(350,0)" x2="0" y2="5" stroke="#888" stroke-width="1" opacity="1"/><line transform="translate(400,0)" x2="0" y2="5" stroke="#888" stroke-width="1" opacity="1"/><line transform="translate(450,0)" x2="0" y2="5" stroke="#888" stroke-width="1" opacity="1"/></g><g class="mark-text role-axis-label" pointer-events="none"><text text-anchor="start" transform="translate(0,15)" font-family="sans-serif" font-size="10px" fill="#000" opacity="1">0</text><text text-anchor="middle" transform="translate(50,15)" font-family="sans-serif" font-size="10px" fill="#000" opacity="1">100</text><text text-anchor="middle" transform="translate(100,15)" font-family="sans-serif" font-size="10px" fill="#000" opacity="1">200</text><text text-anchor="middle" transform="translate(150,15)" font-family="sans-serif" font-size="10px" fill="#000" opacity="1">300</text><text text-anchor="middle" transform="translate(200,15)" font-family="sans-serif" font-size="10px" fill="#000" opacity="1">400</text><text text-anchor="middle" transform="translate(250,15)" font-family="sans-serif" font-size="10px" fill="#000" opacity="1">500</text><text text-anchor="middle" transform="translate(300,15)" font-family="sans-serif" font-size="10px" fill="#000" opacity="1">600</text><text text-anchor="middle" transform="translate(350,15)" font-family="sans-serif" font-size="10px" fill="#000" opacity="1">700</text><text text-anchor="middle" transform="translate(400,15)" font-family="sans-serif" font-size="10px" fill="#000" opacity="1">800</text><text text-anchor="end" transform="translate(450,15)" font-family="sans-serif" font-size="10px" fill="#000" opacity="1">900</text></g><g class="mark-rule role-axis-domain" pointer-events="none"><line transform="translate(0,0)" x2="450" y2="0" stroke="#888" stroke-width="1" opacity="1"/></g><g class="mark-text role-axis-title" pointer-events="none"><text text-anchor="middle" transform="translate(225,30)" font-family="sans-serif" font-size="11px" font-weight="bold" fill="#000" opacity="1">mw</text></g></g><path class="foreground" aria-hidden="true" d="" pointer-events="none" display="none"/></g></g><g class="mark-group role-axis" role="graphics-symbol" aria-roledescription="axis" aria-label="Y-axis titled 'density' for a linear scale with values from 0.000 to 0.004"><g transform="translate(0.5,0.5)"><path class="background" aria-hidden="true" d="M0,0h0v0h0Z" pointer-events="none"/><g><g class="mark-rule role-axis-tick" pointer-events="none"><line transform="translate(0,150)" x2="-5" y2="0" stroke="#888" stroke-width="1" opacity="1"/><line transform="translate(0,117)" x2="-5" y2="0" stroke="#888" stroke-width="1" opacity="1"/><line transform="translate(0,83)" x2="-5" y2="0" stroke="#888" stroke-width="1" opacity="1"/><line transform="translate(0,50)" x2="-5" y2="0" stroke="#888" stroke-width="1" opacity="1"/><line transform="translate(0,17)" x2="-5" y2="0" stroke="#888" stroke-width="1" opacity="1"/></g><g class="mark-text role-axis-label" pointer-events="none"><text text-anchor="end" transform="translate(-7,153)" font-family="sans-serif" font-size="10px" fill="#000" opacity="1">0.000</text><text text-anchor="end" transform="translate(-7,119.66666666666667)" font-family="sans-serif" font-size="10px" fill="#000" opacity="1">0.001</text><text text-anchor="end" transform="translate(-7,86.33333333333334)" font-family="sans-serif" font-size="10px" fill="#000" opacity="1">0.002</text><text text-anchor="end" transform="translate(-7,52.999999999999986)" font-family="sans-serif" font-size="10px" fill="#000" opacity="1">0.003</text><text text-anchor="end" transform="translate(-7,19.666666666666657)" font-family="sans-serif" font-size="10px" fill="#000" opacity="1">0.004</text></g><g class="mark-rule role-axis-domain" pointer-events="none"><line transform="translate(0,150)" x2="0" y2="-150" stroke="#888" stroke-width="1" opacity="1"/></g><g class="mark-text role-axis-title" pointer-events="none"><text text-anchor="middle" transform="translate(-36.03333282470703,75) rotate(-90) translate(0,-2)" font-family="sans-serif" font-size="11px" font-weight="bold" fill="#000" opacity="1">density</text></g></g><path class="foreground" aria-hidden="true" d="" pointer-events="none" display="none"/></g></g><g class="mark-area role-mark concat_0_marks" role="graphics-symbol" aria-roledescription="area mark container"><path d="M44.542031986,149.08549371690077L60.730202724719994,146.00749897152735L76.91837346344,140.68177668769985L93.10654420216001,132.1577093076487L109.29471494088001,119.58872451423531L125.48288567960003,101.90697370365737L141.67105641832,70.93385015345171L157.85922715704004,35.60732090796787L174.04739789576,3.132366641337775L190.23556863448005,12.062186595311818L206.42373937320008,28.173366820555813L222.61191011192005,44.96827563782496L238.80008085064,79.13858224748276L254.98825158936006,102.25410620677238L271.1764223280801,117.49690470141056L287.36459306680007,127.3873148839593L303.55276380552004,134.79084597090792L319.7409345442401,140.04805205180736L335.92910528296005,143.11827987818276L352.1172760216801,146.81622007323864L368.3054467604001,148.62457929110872L384.4936174991201,148.68141152474564L400.68178823784007,148.87329770824644L416.8699589765601,149.38598879659486L433.0581297152801,149.75696706986767L449.2463004540001,149.84241823855098L449.2463004540001,150L433.0581297152801,150L416.8699589765601,150L400.68178823784007,150L384.4936174991201,150L368.3054467604001,150L352.1172760216801,150L335.92910528296005,150L319.7409345442401,150L303.55276380552004,150L287.36459306680007,150L271.1764223280801,150L254.98825158936006,150L238.80008085064,150L222.61191011192005,150L206.42373937320008,150L190.23556863448005,150L174.04739789576,150L157.85922715704004,150L141.67105641832,150L125.48288567960003,150L109.29471494088001,150L93.10654420216001,150L76.91837346344,150L60.730202724719994,150L44.542031986,150Z" fill="#57abc2" opacity="0.6"/></g></g><path class="foreground" aria-hidden="true" d="" display="none"/></g></g><g class="mark-group role-scope concat_1_group" role="graphics-object" aria-roledescription="group mark container"><g transform="translate(515,0)"><path class="background" aria-hidden="true" d="M0.5,0.5h450v150h-450Z" stroke="#ddd"/><g><g class="mark-group role-axis" role="graphics-symbol" aria-roledescription="axis" aria-label="X-axis for a linear scale with values from −10 to 12"><g transform="translate(0.5,150.5)"><path class="background" aria-hidden="true" d="M0,0h0v0h0Z" pointer-events="none"/><g><g class="mark-rule role-axis-grid" pointer-events="none"><line transform="translate(0,-150)" x2="0" y2="150" stroke="#ddd" stroke-width="1" opacity="1"/><line transform="translate(41,-150)" x2="0" y2="150" stroke="#ddd" stroke-width="1" opacity="1"/><line transform="translate(82,-150)" x2="0" y2="150" stroke="#ddd" stroke-width="1" opacity="1"/><line transform="translate(123,-150)" x2="0" y2="150" stroke="#ddd" stroke-width="1" opacity="1"/><line transform="translate(164,-150)" x2="0" y2="150" stroke="#ddd" stroke-width="1" opacity="1"/><line transform="translate(205,-150)" x2="0" y2="150" stroke="#ddd" stroke-width="1" opacity="1"/><line transform="translate(245,-150)" x2="0" y2="150" stroke="#ddd" stroke-width="1" opacity="1"/><line transform="translate(286,-150)" x2="0" y2="150" stroke="#ddd" stroke-width="1" opacity="1"/><line transform="translate(327,-150)" x2="0" y2="150" stroke="#ddd" stroke-width="1" opacity="1"/><line transform="translate(368,-150)" x2="0" y2="150" stroke="#ddd" stroke-width="1" opacity="1"/><line transform="translate(409,-150)" x2="0" y2="150" stroke="#ddd" stroke-width="1" opacity="1"/><line transform="translate(450,-150)" x2="0" y2="150" stroke="#ddd" stroke-width="1" opacity="1"/></g></g><path class="foreground" aria-hidden="true" d="" pointer-events="none" display="none"/></g></g><g class="mark-group role-axis" role="graphics-symbol" aria-roledescription="axis" aria-label="Y-axis for a linear scale with values from 0.00 to 0.24"><g transform="translate(0.5,0.5)"><path class="background" aria-hidden="true" d="M0,0h0v0h0Z" pointer-events="none"/><g><g class="mark-rule role-axis-grid" pointer-events="none"><line transform="translate(0,150)" x2="450" y2="0" stroke="#ddd" stroke-width="1" opacity="1"/><line transform="translate(0,119)" x2="450" y2="0" stroke="#ddd" stroke-width="1" opacity="1"/><line transform="translate(0,87)" x2="450" y2="0" stroke="#ddd" stroke-width="1" opacity="1"/><line transform="translate(0,56)" x2="450" y2="0" stroke="#ddd" stroke-width="1" opacity="1"/><line transform="translate(0,25)" x2="450" y2="0" stroke="#ddd" stroke-width="1" opacity="1"/></g></g><path class="foreground" aria-hidden="true" d="" pointer-events="none" display="none"/></g></g><g class="mark-group role-axis" role="graphics-symbol" aria-roledescription="axis" aria-label="X-axis titled 'clogp' for a linear scale with values from −10 to 12"><g transform="translate(0.5,150.5)"><path class="background" aria-hidden="true" d="M0,0h0v0h0Z" pointer-events="none"/><g><g class="mark-rule role-axis-tick" pointer-events="none"><line transform="translate(0,0)" x2="0" y2="5" stroke="#888" stroke-width="1" opacity="1"/><line transform="translate(41,0)" x2="0" y2="5" stroke="#888" stroke-width="1" opacity="1"/><line transform="translate(82,0)" x2="0" y2="5" stroke="#888" stroke-width="1" opacity="1"/><line transform="translate(123,0)" x2="0" y2="5" stroke="#888" stroke-width="1" opacity="1"/><line transform="translate(164,0)" x2="0" y2="5" stroke="#888" stroke-width="1" opacity="1"/><line transform="translate(205,0)" x2="0" y2="5" stroke="#888" stroke-width="1" opacity="1"/><line transform="translate(245,0)" x2="0" y2="5" stroke="#888" stroke-width="1" opacity="1"/><line transform="translate(286,0)" x2="0" y2="5" stroke="#888" stroke-width="1" opacity="1"/><line transform="translate(327,0)" x2="0" y2="5" stroke="#888" stroke-width="1" opacity="1"/><line transform="translate(368,0)" x2="0" y2="5" stroke="#888" stroke-width="1" opacity="1"/><line transform="translate(409,0)" x2="0" y2="5" stroke="#888" stroke-width="1" opacity="1"/><line transform="translate(450,0)" x2="0" y2="5" stroke="#888" stroke-width="1" opacity="1"/></g><g class="mark-text role-axis-label" pointer-events="none"><text text-anchor="start" transform="translate(0,15)" font-family="sans-serif" font-size="10px" fill="#000" opacity="1">−10</text><text text-anchor="middle" transform="translate(40.909090909090914,15)" font-family="sans-serif" font-size="10px" fill="#000" opacity="1">−8</text><text text-anchor="middle" transform="translate(81.81818181818183,15)" font-family="sans-serif" font-size="10px" fill="#000" opacity="1">−6</text><text text-anchor="middle" transform="translate(122.72727272727272,15)" font-family="sans-serif" font-size="10px" fill="#000" opacity="1">−4</text><text text-anchor="middle" transform="translate(163.63636363636365,15)" font-family="sans-serif" font-size="10px" fill="#000" opacity="1">−2</text><text text-anchor="middle" transform="translate(204.54545454545453,15)" font-family="sans-serif" font-size="10px" fill="#000" opacity="1">0</text><text text-anchor="middle" transform="translate(245.45454545454544,15)" font-family="sans-serif" font-size="10px" fill="#000" opacity="1">2</text><text text-anchor="middle" transform="translate(286.3636363636364,15)" font-family="sans-serif" font-size="10px" fill="#000" opacity="1">4</text><text text-anchor="middle" transform="translate(327.2727272727273,15)" font-family="sans-serif" font-size="10px" fill="#000" opacity="1">6</text><text text-anchor="middle" transform="translate(368.1818181818182,15)" font-family="sans-serif" font-size="10px" fill="#000" opacity="1">8</text><text text-anchor="middle" transform="translate(409.09090909090907,15)" font-family="sans-serif" font-size="10px" fill="#000" opacity="1">10</text><text text-anchor="end" transform="translate(450,15)" font-family="sans-serif" font-size="10px" fill="#000" opacity="1">12</text></g><g class="mark-rule role-axis-domain" pointer-events="none"><line transform="translate(0,0)" x2="450" y2="0" stroke="#888" stroke-width="1" opacity="1"/></g><g class="mark-text role-axis-title" pointer-events="none"><text text-anchor="middle" transform="translate(225,30)" font-family="sans-serif" font-size="11px" font-weight="bold" fill="#000" opacity="1">clogp</text></g></g><path class="foreground" aria-hidden="true" d="" pointer-events="none" display="none"/></g></g><g class="mark-group role-axis" role="graphics-symbol" aria-roledescription="axis" aria-label="Y-axis titled 'density' for a linear scale with values from 0.00 to 0.24"><g transform="translate(0.5,0.5)"><path class="background" aria-hidden="true" d="M0,0h0v0h0Z" pointer-events="none"/><g><g class="mark-rule role-axis-tick" pointer-events="none"><line transform="translate(0,150)" x2="-5" y2="0" stroke="#888" stroke-width="1" opacity="1"/><line transform="translate(0,119)" x2="-5" y2="0" stroke="#888" stroke-width="1" opacity="1"/><line transform="translate(0,87)" x2="-5" y2="0" stroke="#888" stroke-width="1" opacity="1"/><line transform="translate(0,56)" x2="-5" y2="0" stroke="#888" stroke-width="1" opacity="1"/><line transform="translate(0,25)" x2="-5" y2="0" stroke="#888" stroke-width="1" opacity="1"/></g><g class="mark-text role-axis-label" pointer-events="none"><text text-anchor="end" transform="translate(-7,153)" font-family="sans-serif" font-size="10px" fill="#000" opacity="1">0.00</text><text text-anchor="end" transform="translate(-7,121.75)" font-family="sans-serif" font-size="10px" fill="#000" opacity="1">0.05</text><text text-anchor="end" transform="translate(-7,90.49999999999999)" font-family="sans-serif" font-size="10px" fill="#000" opacity="1">0.10</text><text text-anchor="end" transform="translate(-7,59.25)" font-family="sans-serif" font-size="10px" fill="#000" opacity="1">0.15</text><text text-anchor="end" transform="translate(-7,27.999999999999993)" font-family="sans-serif" font-size="10px" fill="#000" opacity="1">0.20</text></g><g class="mark-rule role-axis-domain" pointer-events="none"><line transform="translate(0,150)" x2="0" y2="-150" stroke="#888" stroke-width="1" opacity="1"/></g><g class="mark-text role-axis-title" pointer-events="none"><text text-anchor="middle" transform="translate(-30.46666717529297,75) rotate(-90) translate(0,-2)" font-family="sans-serif" font-size="11px" font-weight="bold" fill="#000" opacity="1">density</text></g></g><path class="foreground" aria-hidden="true" d="" pointer-events="none" display="none"/></g></g><g class="mark-area role-mark concat_1_marks" role="graphics-symbol" aria-roledescription="area mark container"><path d="M2.38909090909061,149.84515644251212L18.871199999999707,149.86179667627295L35.3533090909088,149.9756129748728L51.8354181818179,149.99999020200457L68.31752727272699,149.9999999999915L84.7996363636361,149.99999999999602L101.28174545454519,149.99999394524295L117.76385454545431,149.97892811644934L134.24596363636337,149.6903428881536L150.72807272727246,149.69916616665898L167.21018181818158,149.09566065977782L183.69229090909067,146.75908179201403L187.812818181818,145.44059607104293L191.93334545454522,143.6039750058033L196.05387272727248,141.22235380280645L200.17439999999976,138.1676785771083L204.29492727272708,134.36131917463854L206.35519090909068,132.1002109557471L208.4154545454543,129.48986813604836L210.47571818181797,126.42678901950873L212.53598181818157,122.84753045698095L214.59624545454525,118.77444512190381L216.65650909090888,114.32554215018622L233.138618181818,77.92949919495753L237.25914545454523,68.26801426091814L241.37967272727252,58.00061849165257L245.5001999999998,46.877851170540566L249.62072727272707,35.0095345509496L251.6809909090907,29.200926651858577L253.74125454545435,23.848789025193607L255.801518181818,19.223337376584638L257.8617818181816,15.493146179252598L259.92204545454524,12.679675318365474L261.98230909090887,10.664532578074143L264.04257272727256,9.244219642158502L266.1028363636362,8.204048939801867L270.22336363636344,6.670868637931066L274.3438909090907,5.601225245904401L276.4041545454544,5.373726362804882L278.464418181818,5.516423409843951L280.52468181818165,6.18107522009686L282.5849454545453,7.504948034666587L286.70547272727254,12.422570896481433L290.8259999999998,20.126513387809304L299.06705454545437,39.22212759382671L315.54916363636346,79.60264265394119L323.790218181818,96.50531453903429L327.9107454545453,104.25543069249098L329.97100909090886,107.71206190286877L332.0312727272725,110.81367366072458L348.5133818181817,129.9379204380198L352.6339090909089,134.32495691898976L356.7544363636362,138.13116941294547L360.8749636363635,141.14992932342994L364.9954909090907,143.42032315963738L369.11601818181805,144.96988003121902L373.2365454545453,145.90310366148276L381.4775999999999,147.3046085394949L397.95970909090886,148.97056988360183L414.44181818181806,149.5899491826088L414.44181818181806,150L397.95970909090886,150L381.4775999999999,150L373.2365454545453,150L369.11601818181805,150L364.9954909090907,150L360.8749636363635,150L356.7544363636362,150L352.6339090909089,150L348.5133818181817,150L332.0312727272725,150L329.97100909090886,150L327.9107454545453,150L323.790218181818,150L315.54916363636346,150L299.06705454545437,150L290.8259999999998,150L286.70547272727254,150L282.5849454545453,150L280.52468181818165,150L278.464418181818,150L276.4041545454544,150L274.3438909090907,150L270.22336363636344,150L266.1028363636362,150L264.04257272727256,150L261.98230909090887,150L259.92204545454524,150L257.8617818181816,150L255.801518181818,150L253.74125454545435,150L251.6809909090907,150L249.62072727272707,150L245.5001999999998,150L241.37967272727252,150L237.25914545454523,150L233.138618181818,150L216.65650909090888,150L214.59624545454525,150L212.53598181818157,150L210.47571818181797,150L208.4154545454543,150L206.35519090909068,150L204.29492727272708,150L200.17439999999976,150L196.05387272727248,150L191.93334545454522,150L187.812818181818,150L183.69229090909067,150L167.21018181818158,150L150.72807272727246,150L134.24596363636337,150L117.76385454545431,150L101.28174545454519,150L84.7996363636361,150L68.31752727272699,150L51.8354181818179,150L35.3533090909088,150L18.871199999999707,150L2.38909090909061,150Z" fill="#ee8353" opacity="0.6"/></g></g><path class="foreground" aria-hidden="true" d="" display="none"/></g></g></g><path class="foreground" aria-hidden="true" d="" display="none"/></g></g></g></svg>